<svg width="20" height="24" viewBox="0 0 20 24" fill="none" xmlns="http://www.w3.org/2000/svg">
<path d="M19.8551 18.4821C18.6698 16.5233 18.0294 14.2834 18.0001 11.9941V8.0061C18.0001 5.88437 17.1573 3.84954 15.657 2.34925C14.1567 0.848958 12.1218 0.00610352 10.0001 0.00610352C7.87838 0.00610352 5.84354 0.848958 4.34325 2.34925C2.84296 3.84954 2.00011 5.88437 2.00011 8.0061V11.9881C1.97182 14.2794 1.33137 16.5215 0.145108 18.4821C0.053278 18.6337 0.00341004 18.8071 0.000612806 18.9843C-0.00218443 19.1616 0.0421896 19.3364 0.129189 19.4909C0.216188 19.6453 0.342685 19.7739 0.495721 19.8634C0.648757 19.9528 0.82283 20 1.00011 20.0001H19.0001C19.1774 20 19.3515 19.9528 19.5045 19.8634C19.6575 19.7739 19.784 19.6453 19.871 19.4909C19.958 19.3364 20.0024 19.1616 19.9996 18.9843C19.9968 18.8071 19.9469 18.6337 19.8551 18.4821Z" fill="white"/>
<path d="M11.0073 23.8251C11.4264 23.6758 11.8071 23.4351 12.1217 23.1205C12.4363 22.8059 12.677 22.4252 12.8263 22.0061H7.17432C7.30655 22.3772 7.51059 22.7187 7.77478 23.0109C8.03898 23.3032 8.35815 23.5406 8.71408 23.7095C9.07001 23.8784 9.45572 23.9755 9.8492 23.9954C10.2427 24.0152 10.6362 23.9574 11.0073 23.8251Z" fill="white"/>
</svg>
