<svg width="22" height="28" viewBox="0 0 22 28" fill="none" xmlns="http://www.w3.org/2000/svg">
<path d="M18 0H4C3.07174 0 2.1815 0.368749 1.52513 1.02513C0.868749 1.6815 0.5 2.57174 0.5 3.5V24.5C0.5 25.4283 0.868749 26.3185 1.52513 26.9749C2.1815 27.6313 3.07174 28 4 28H18C18.9283 28 19.8185 27.6313 20.4749 26.9749C21.1313 26.3185 21.5 25.4283 21.5 24.5V3.5C21.5 2.57174 21.1313 1.6815 20.4749 1.02513C19.8185 0.368749 18.9283 0 18 0V0ZM19.1667 23.3333C19.1667 23.6428 19.0438 23.9395 18.825 24.1583C18.6062 24.3771 18.3094 24.5 18 24.5H4C3.69058 24.5 3.39383 24.3771 3.17504 24.1583C2.95625 23.9395 2.83333 23.6428 2.83333 23.3333V4.66667C2.83333 4.35725 2.95625 4.0605 3.17504 3.84171C3.39383 3.62292 3.69058 3.5 4 3.5H18C18.3094 3.5 18.6062 3.62292 18.825 3.84171C19.0438 4.0605 19.1667 4.35725 19.1667 4.66667V23.3333Z" fill="#FFAF2A"/>
<path d="M15.1368 14.679C14.3652 13.9603 13.444 13.4212 12.4395 13.1005L11.6601 12.803V9.0697C12.7589 9.16052 13.8377 9.41616 14.8603 9.82804L15.6081 7.95204C14.3529 7.43902 13.0156 7.15606 11.6601 7.1167V5.41687H10.2998V7.1377C9.21523 7.20158 8.17426 7.58702 7.30963 8.24487C6.95797 8.52201 6.67545 8.87701 6.48434 9.28191C6.29323 9.68682 6.19873 10.1306 6.2083 10.5782C6.18364 11.3872 6.45916 12.1768 6.9818 12.7949C7.66176 13.4995 8.50245 14.0287 9.4318 14.3372L10.294 14.6557V18.4905C9.58048 18.4706 8.87161 18.3692 8.18113 18.1884C7.47051 18.0202 6.77955 17.7777 6.11963 17.465V19.6315C7.44425 20.1703 8.86419 20.4354 10.294 20.4109V22.5715H11.6566V20.3467C12.8007 20.2847 13.8974 19.8689 14.795 19.1567C15.1476 18.855 15.4286 18.4787 15.6177 18.0549C15.8068 17.6311 15.8991 17.1706 15.8881 16.7067C15.9067 15.9595 15.6378 15.2337 15.1368 14.679ZM10.2916 12.2967C9.80397 12.1346 9.35539 11.8728 8.97446 11.5279C8.72902 11.264 8.59777 10.9139 8.6093 10.5537C8.60659 10.3745 8.64381 10.1969 8.71828 10.0338C8.79274 9.87079 8.90257 9.72636 9.0398 9.61104C9.40051 9.32735 9.8349 9.15286 10.2916 9.1082V12.2967ZM11.6543 18.4042V15.1375C12.1592 15.2956 12.6303 15.546 13.0438 15.876C13.1797 15.9997 13.2872 16.1513 13.3589 16.3205C13.4306 16.4897 13.4648 16.6724 13.4591 16.856C13.4607 17.703 12.8591 18.2191 11.6543 18.4042Z" fill="#FFAF2A"/>
</svg>
